<svg id="Layer_1" data-name="Layer 1" xmlns="http://www.w3.org/2000/svg" xmlns:xlink="http://www.w3.org/1999/xlink" width="531" height="299" viewBox="0 0 531 299"><defs><style>.cls-1{font-size:29.24px;letter-spacing:-0.01em;}.cls-1,.cls-15,.cls-6{font-family:Arial-BoldMT, Arial;font-weight:700;}.cls-2{letter-spacing:-0.09em;}.cls-3{font-size:4.35px;font-family:Helvetica-Oblique, Helvetica;font-style:oblique;}.cls-4{letter-spacing:-0.02em;}.cls-5{letter-spacing:-0.02em;}.cls-6{font-size:11.5px;}.cls-7{fill:url(#linear-gradient);}.cls-8{fill:url(#linear-gradient-2);}.cls-9{fill:url(#linear-gradient-3);}.cls-10{fill:url(#linear-gradient-4);}.cls-11{fill:url(#linear-gradient-5);}.cls-12,.cls-18,.cls-19,.cls-20,.cls-21,.cls-26,.cls-27,.cls-28,.cls-29{fill:none;}.cls-12{stroke:#000;}.cls-12,.cls-18,.cls-19,.cls-20,.cls-21,.cls-22,.cls-23,.cls-24,.cls-25,.cls-26,.cls-27,.cls-28,.cls-29{stroke-miterlimit:10;}.cls-13{font-size:10.4px;}.cls-13,.cls-14,.cls-17,.cls-30,.cls-32,.cls-34,.cls-36{font-family:Helvetica;}.cls-14{font-size:9.92px;}.cls-15{font-size:11.31px;fill:#fff;}.cls-16{fill:url(#radial-gradient);}.cls-17{font-size:6.5px;}.cls-18,.cls-19,.cls-20,.cls-21,.cls-22,.cls-23,.cls-24,.cls-25,.cls-26,.cls-27,.cls-28,.cls-29{stroke-linecap:round;}.cls-18,.cls-19,.cls-20,.cls-21,.cls-22,.cls-23,.cls-24,.cls-25{stroke-width:8px;}.cls-18{stroke:url(#linear-gradient-6);}.cls-19{stroke:url(#linear-gradient-7);}.cls-20{stroke:url(#linear-gradient-8);}.cls-21{stroke:url(#linear-gradient-9);}.cls-22{fill:url(#linear-gradient-10);stroke:url(#linear-gradient-11);}.cls-23{fill:url(#linear-gradient-12);stroke:url(#linear-gradient-13);}.cls-24{fill:url(#linear-gradient-14);stroke:url(#linear-gradient-15);}.cls-25{fill:url(#linear-gradient-16);stroke:url(#linear-gradient-17);}.cls-26,.cls-27,.cls-28,.cls-29{stroke-width:9px;}.cls-26{stroke:url(#linear-gradient-18);}.cls-27{stroke:url(#linear-gradient-19);}.cls-28{stroke:url(#linear-gradient-20);}.cls-29{stroke:url(#linear-gradient-21);}.cls-30{font-size:6.36px;}.cls-31{letter-spacing:-0.05em;}.cls-32{font-size:6.49px;}.cls-33{fill:#e6e6e6;}.cls-34,.cls-36{font-size:5.38px;}.cls-34{letter-spacing:-0.02em;}.cls-35{letter-spacing:0em;}.cls-37{fill:url(#linear-gradient-22);}.cls-38{fill:url(#linear-gradient-23);}.cls-39{fill:url(#linear-gradient-24);}.cls-40{font-size:6.5px;font-family:ArialMT, Arial;letter-spacing:-0.02em;}.cls-41{letter-spacing:-0.04em;}</style><linearGradient id="linear-gradient" x1="60.27" y1="146.51" x2="127.77" y2="146.51" gradientUnits="userSpaceOnUse"><stop offset="0" stop-color="#ed8b00"/><stop offset="0.2" stop-color="#f2a20a"/><stop offset="0.53" stop-color="#f8c118"/><stop offset="0.81" stop-color="#fcd321"/><stop offset="1" stop-color="#fdda24"/></linearGradient><linearGradient id="linear-gradient-2" x1="53.87" y1="205.28" x2="130.35" y2="205.28" gradientUnits="userSpaceOnUse"><stop offset="0" stop-color="#12319a"/><stop offset="0.03" stop-color="#19399d"/><stop offset="0.28" stop-color="#4b6fb3"/><stop offset="0.5" stop-color="#729ac4"/><stop offset="0.71" stop-color="#8fb9d1"/><stop offset="0.88" stop-color="#a0cbd8"/><stop offset="1" stop-color="#a6d2db"/></linearGradient><linearGradient id="linear-gradient-3" x1="127.77" y1="211.35" x2="201.68" y2="211.35" gradientUnits="userSpaceOnUse"><stop offset="0" stop-color="#ed8b00"/><stop offset="1" stop-color="#be3a34"/></linearGradient><linearGradient id="linear-gradient-4" x1="127.77" y1="146.42" x2="199.47" y2="146.42" gradientUnits="userSpaceOnUse"><stop offset="0" stop-color="#002855"/><stop offset="1" stop-color="#005eb8"/></linearGradient><linearGradient id="linear-gradient-5" x1="122.62" y1="146.42" x2="127.77" y2="146.42" gradientUnits="userSpaceOnUse"><stop offset="0.57" stop-color="#4f847d"/><stop offset="0.69" stop-color="#609187"/><stop offset="0.93" stop-color="#8bb3a1"/><stop offset="1" stop-color="#9abeaa"/></linearGradient><radialGradient id="radial-gradient" cx="127.53" cy="182.69" r="44.77" gradientUnits="userSpaceOnUse"><stop offset="0" stop-color="#fff"/><stop offset="0.03" stop-color="#fff" stop-opacity="0.94"/><stop offset="0.1" stop-color="#fff" stop-opacity="0.83"/><stop offset="0.18" stop-color="#fff" stop-opacity="0.75"/><stop offset="0.28" stop-color="#fff" stop-opacity="0.68"/><stop offset="0.39" stop-color="#fff" stop-opacity="0.63"/><stop offset="0.55" stop-color="#fff" stop-opacity="0.61"/><stop offset="1" stop-color="#fff" stop-opacity="0.6"/></radialGradient><linearGradient id="linear-gradient-6" x1="346.67" y1="148.14" x2="346.67" y2="171.39" gradientUnits="userSpaceOnUse"><stop offset="0" stop-color="#1e5f61"/><stop offset="1" stop-color="#81ab9c"/></linearGradient><linearGradient id="linear-gradient-7" x1="374.39" y1="148.14" x2="374.39" y2="158.92" xlink:href="#linear-gradient-6"/><linearGradient id="linear-gradient-8" x1="402.11" y1="138.44" x2="402.11" y2="158.92" xlink:href="#linear-gradient-6"/><linearGradient id="linear-gradient-9" x1="429.83" y1="124.58" x2="429.83" y2="146.44" xlink:href="#linear-gradient-6"/><linearGradient id="linear-gradient-10" x1="332.81" y1="159.07" x2="360.53" y2="159.07" gradientUnits="userSpaceOnUse"><stop offset="0" stop-color="#f09906"/><stop offset="1" stop-color="#fcd421"/></linearGradient><linearGradient id="linear-gradient-11" x1="328.81" y1="159.07" x2="364.53" y2="159.07" xlink:href="#linear-gradient-10"/><linearGradient id="linear-gradient-12" x1="360.53" y1="153.53" x2="388.25" y2="153.53" xlink:href="#linear-gradient-10"/><linearGradient id="linear-gradient-13" x1="356.53" y1="153.53" x2="392.25" y2="153.53" xlink:href="#linear-gradient-10"/><linearGradient id="linear-gradient-14" x1="388.25" y1="153.53" x2="415.97" y2="153.53" xlink:href="#linear-gradient-10"/><linearGradient id="linear-gradient-15" x1="384.25" y1="153.53" x2="419.97" y2="153.53" xlink:href="#linear-gradient-10"/><linearGradient id="linear-gradient-16" x1="415.97" y1="138.28" x2="443.69" y2="138.28" xlink:href="#linear-gradient-10"/><linearGradient id="linear-gradient-17" x1="411.97" y1="138.28" x2="447.69" y2="138.28" xlink:href="#linear-gradient-10"/><linearGradient id="linear-gradient-18" x1="346.67" y1="142.78" x2="346.67" y2="126.85" gradientUnits="userSpaceOnUse"><stop offset="0" stop-color="#1e9cd7"/><stop offset="0.51" stop-color="#0075be"/><stop offset="0.99" stop-color="#005b97"/></linearGradient><linearGradient id="linear-gradient-19" x1="374.39" y1="135.85" x2="374.39" y2="124.08" xlink:href="#linear-gradient-18"/><linearGradient id="linear-gradient-20" x1="402.11" y1="133.08" x2="402.11" y2="118.54" xlink:href="#linear-gradient-18"/><linearGradient id="linear-gradient-21" x1="429.83" y1="127.54" x2="429.83" y2="96.36" xlink:href="#linear-gradient-18"/><linearGradient id="linear-gradient-22" x1="426.58" y1="176.91" x2="426.58" y2="171.95" gradientTransform="translate(-0.13 -0.29)" xlink:href="#linear-gradient-18"/><linearGradient id="linear-gradient-23" x1="426.58" y1="180.22" x2="426.58" y2="185.19" gradientTransform="translate(-0.13 -0.29)" xlink:href="#linear-gradient-10"/><linearGradient id="linear-gradient-24" x1="426.58" y1="188.7" x2="426.58" y2="193.67" gradientTransform="translate(-0.13 -0.29)" xlink:href="#linear-gradient-6"/></defs><title>web graphics</title><text class="cls-1" transform="translate(15.2 41.67)">NEG<tspan class="cls-2" x="62.05" y="0">A</tspan><tspan x="80.55" y="0">TIVE COMMENTS</tspan></text><text class="cls-3" transform="translate(356.52 283.74)">Research conducted by <tspan class="cls-4" x="46.93" y="0">W</tspan><tspan x="50.96" y="0">est </tspan><tspan class="cls-5" x="57.98" y="0">V</tspan><tspan x="60.8" y="0">irginia University | @</tspan><tspan class="cls-4" x="100.69" y="0">W</tspan><tspan x="104.73" y="0">est</tspan><tspan class="cls-5" x="110.53" y="0">V</tspan><tspan x="113.36" y="0">irginiaU | social.wvu.edu</tspan></text><text class="cls-6" transform="translate(15.19 63.89)">82% of social media managers are at least occasionally affected by negative comments.</text><path class="cls-7" d="M127.77,183.36l-67.5-30.05c11.39-25.57,34.42-41.7,62.35-43.65Z"/><path class="cls-8" d="M127.77,183.36l2.58,73.85a73.89,73.89,0,0,1-76.42-71.27,69.62,69.62,0,0,1,6.34-32.63Z"/><path class="cls-9" d="M127.77,183.36l71.7-17.87a73.89,73.89,0,0,1-53.82,89.57,71.88,71.88,0,0,1-15.3,2.15Z"/><path class="cls-10" d="M127.77,183.36V109.48c34.61,0,63.32,22.43,71.7,56Z"/><path class="cls-11" d="M127.77,183.36l-5.15-73.7c1.63-.12,3.52-.18,5.15-.18Z"/><line class="cls-12" x1="191.59" y1="221.42" x2="201.43" y2="226.12"/><line class="cls-12" x1="81.24" y1="111.62" x2="87.43" y2="120.8"/><line class="cls-12" x1="54.51" y1="228.93" x2="64.98" y2="223.31"/><text class="cls-13" transform="translate(13.02 241.69)">Sometimes</text><text class="cls-13" transform="translate(59.16 105.06)">Rarely</text><text class="cls-13" transform="translate(191.41 239.66)">Occasionally</text><line class="cls-12" x1="178.89" y1="129.88" x2="185.66" y2="122.05"/><text class="cls-14" transform="translate(176.64 116.33) scale(1.05 1)">Frequently</text><line class="cls-12" x1="125.51" y1="109.58" x2="125.41" y2="99.75"/><text class="cls-13" transform="translate(111.36 94.15)">Never</text><text class="cls-15" transform="translate(158.23 141.58)">21%</text><text class="cls-15" transform="translate(170.24 216.73)">28%</text><text class="cls-15" transform="translate(68.29 220.49)">32%</text><text class="cls-15" transform="translate(85.59 135.55)">17%</text><text class="cls-15" transform="translate(119.73 127.01)">1%</text><circle class="cls-16" cx="127.53" cy="182.69" r="44.77"/><line class="cls-12" x1="318.95" y1="218.67" x2="457.55" y2="218.67"/><line class="cls-12" x1="318.95" y1="218.67" x2="318.95" y2="215.21"/><line class="cls-12" x1="334.06" y1="218.67" x2="334.06" y2="215.21"/><line class="cls-12" x1="361.26" y1="218.67" x2="361.26" y2="215.21"/><line class="cls-12" x1="388.46" y1="218.67" x2="388.46" y2="215.21"/><line class="cls-12" x1="416.51" y1="218.67" x2="416.51" y2="215.21"/><line class="cls-12" x1="457.55" y1="218.67" x2="457.55" y2="215.21"/><text class="cls-17" transform="translate(313.17 221.11)">0</text><text class="cls-17" transform="translate(313.17 193.39)">2</text><text class="cls-17" transform="translate(313.17 165.67)">4</text><text class="cls-17" transform="translate(313.17 137.95)">6</text><text class="cls-17" transform="translate(313.17 110.23)">8</text><text class="cls-17" transform="translate(309.56 82.51)">10</text><line class="cls-12" x1="318.95" y1="218.67" x2="318.95" y2="80.07"/><line class="cls-12" x1="318.95" y1="218.67" x2="322.42" y2="218.67"/><line class="cls-12" x1="318.95" y1="190.95" x2="322.42" y2="190.95"/><line class="cls-12" x1="318.95" y1="163.23" x2="322.42" y2="163.23"/><line class="cls-12" x1="318.95" y1="135.51" x2="322.42" y2="135.51"/><line class="cls-12" x1="318.95" y1="107.79" x2="322.42" y2="107.79"/><line class="cls-18" x1="360.53" y1="152.14" x2="332.81" y2="167.39"/><line class="cls-19" x1="388.25" y1="154.92" x2="360.53" y2="152.14"/><line class="cls-20" x1="415.97" y1="142.44" x2="388.25" y2="154.92"/><line class="cls-21" x1="443.69" y1="128.58" x2="415.97" y2="142.44"/><line class="cls-22" x1="360.53" y1="147.98" x2="332.81" y2="170.16"/><line class="cls-23" x1="388.25" y1="159.07" x2="360.53" y2="147.98"/><line class="cls-24" x1="415.97" y1="147.98" x2="388.25" y2="159.07"/><line class="cls-25" x1="443.69" y1="128.58" x2="415.97" y2="147.98"/><line class="cls-26" x1="360.53" y1="131.35" x2="332.81" y2="138.28"/><line class="cls-27" x1="388.25" y1="128.58" x2="360.53" y2="131.35"/><line class="cls-28" x1="415.97" y1="123.04" x2="388.25" y2="128.58"/><line class="cls-29" x1="443.69" y1="100.86" x2="415.97" y2="123.04"/><text class="cls-30" transform="translate(289.39 173.49) rotate(-90)">Mental health rating<tspan x="-31.81" y="7.63">(on 0-10 scale; 1 being lo</tspan><tspan class="cls-31" x="39.58" y="7.63">w</tspan><tspan x="43.83" y="7.63">, 10 being high)</tspan></text><text class="cls-32" transform="translate(330.98 226.35) rotate(36)">Frequently</text><text class="cls-32" transform="translate(357.87 225.87) rotate(36)">Sometimes</text><text class="cls-32" transform="translate(385.08 225.59) rotate(36)">Occasionally</text><text class="cls-32" transform="translate(413.61 226.4) rotate(36)">Rarely</text><text class="cls-32" transform="translate(441.16 226.82) rotate(36)">Never</text><rect class="cls-33" x="417.66" y="166.35" width="62.63" height="31.89"/><text class="cls-34" transform="translate(432.22 175.77)">A<tspan class="cls-35" x="3.49" y="0">verage day</tspan></text><text class="cls-36" transform="translate(432.15 184.46)">In a crisis</text><text class="cls-36" transform="translate(432.29 192.94)">During COVID-19</text><rect class="cls-37" x="423.14" y="171.64" width="6.62" height="4.96"/><rect class="cls-38" x="423.14" y="179.92" width="6.62" height="4.96"/><rect class="cls-39" x="423.14" y="188.4" width="6.62" height="4.96"/><line class="cls-12" x1="444.1" y1="219.17" x2="444.1" y2="215.7"/><text class="cls-40" transform="translate(348.95 260.26)">How often someone is a<tspan class="cls-41" x="66.87" y="0">f</tspan><tspan x="68.43" y="0">fected </tspan><tspan x="12.3" y="6.5">by negative comments</tspan></text></svg>